<svg width="236" height="219" viewBox="0 0 236 219" fill="none" xmlns="http://www.w3.org/2000/svg">
<path d="M82.9938 153.352H78.5556C75.9102 153.352 73.7676 151.275 73.7676 148.713V136.522C73.7676 133.96 75.9123 131.883 78.5556 131.883H82.7424" fill="white"/>
<path d="M82.9935 154.161H78.5553C75.4682 154.161 72.9584 151.717 72.9584 148.713V136.522C72.9584 133.518 75.4704 131.074 78.5553 131.074H82.7421V132.692H78.5553C76.3603 132.692 74.5762 134.41 74.5762 136.52V148.711C74.5762 150.823 76.3624 152.539 78.5553 152.539H82.9935V154.161Z" fill="#1B1E51"/>
<path d="M154.752 153.352H159.191C161.836 153.352 163.979 151.275 163.979 148.713V136.522C163.979 133.96 161.834 131.883 159.191 131.883H155.004" fill="white"/>
<path d="M159.191 154.161H154.752V152.543H159.191C161.386 152.543 163.17 150.825 163.17 148.715V136.524C163.17 134.412 161.383 132.696 159.191 132.696H155.004V131.078H159.191C162.278 131.078 164.788 133.522 164.788 136.526V148.717C164.788 151.717 162.278 154.161 159.191 154.161Z" fill="#1B1E51"/>
<path d="M147.079 168.512H90.6682C86.0092 168.512 82.1985 164.701 82.1985 160.042V101.915C82.1985 97.256 86.0092 93.4453 90.6682 93.4453H147.077C151.736 93.4453 155.547 97.256 155.547 101.915V160.04C155.549 164.699 151.736 168.512 147.079 168.512Z" fill="white"/>
<path d="M139.87 169.321H97.8758C88.7852 169.321 81.3889 161.925 81.3889 152.834V109.123C81.3889 100.033 88.7852 92.6362 97.8758 92.6362H139.87C148.961 92.6362 156.357 100.033 156.357 109.123V152.834C156.357 161.925 148.961 169.321 139.87 169.321ZM97.8758 94.2541C89.6772 94.2541 83.0068 100.925 83.0068 109.123V152.834C83.0068 161.033 89.6772 167.703 97.8758 167.703H139.87C148.069 167.703 154.739 161.033 154.739 152.834V109.123C154.739 100.925 148.069 94.2541 139.87 94.2541H97.8758Z" fill="#1B1E51"/>
<path d="M142.925 155.02L148.476 154.964C148.476 154.964 164.51 158.593 166.465 166.131C168.417 173.672 166.845 179.612 154.606 184.201L143.856 186.092L134.702 189.19C134.702 189.19 125.959 191.851 120.782 189.011C120.782 189.011 116.092 190.961 103.523 188.902C90.9541 186.842 84.2947 184.859 84.2947 184.859C84.2947 184.859 65.7439 181.26 71.8612 165.663C74.089 161.675 84.9484 155.86 90.6043 155.219C96.2559 154.585 142.925 155.02 142.925 155.02Z" fill="white"/>
<path opacity="0.1" d="M95.5648 162.666C95.5648 162.666 108.851 162.747 114.914 166.052C114.914 166.052 122.697 159.509 131.169 164.64C131.169 164.64 142.809 161.024 146.357 161.988L135.793 165.311L128.458 168.954C128.458 168.954 126.392 164.64 122.104 166.243C117.817 167.843 114.511 170.762 114.511 170.762C114.511 170.762 102.222 163.401 95.567 162.885" fill="#1B1E51"/>
<path d="M151.129 184.278C151.092 184.321 151.101 184.313 151.099 184.313C151.097 184.317 151.097 184.313 151.099 184.304C151.206 182.417 150.397 180.589 149.822 178.807C148.576 174.962 146.392 171.564 143.786 168.482C142.485 166.934 141.096 165.423 139.645 164.019C139.448 163.842 139.437 163.534 139.621 163.342C139.789 163.167 140.058 163.151 140.246 163.296C145.145 167.183 149.516 172.211 151.267 178.324C151.724 179.842 152.142 181.4 152.203 183.007C152.214 183.587 152.218 184.219 151.936 184.756C151.615 185.39 150.705 184.863 151.129 184.278Z" fill="#1B1E51"/>
<path d="M90.8381 187.03C90.7484 186.838 90.7397 186.702 90.6916 186.523C90.3855 184.468 90.884 182.388 91.3737 180.414C93.0003 174.131 96.9029 168.709 101.4 164.141C101.82 163.737 102.474 164.319 102.089 164.782C98.8968 168.838 95.8075 173.112 93.8574 177.917C93.1206 179.815 92.4625 181.829 92.0056 183.816C91.811 184.721 91.6295 185.635 91.6951 186.555C91.6973 186.597 91.7148 186.674 91.7039 186.658C91.9378 187.224 91.0917 187.598 90.8381 187.03Z" fill="#1B1E51"/>
<path d="M114.07 190.637C110.368 190.637 105.716 190.185 100.668 188.624C98.4246 188.532 71.5505 187.124 69.725 172.259L69.7184 172.189C69.2287 158.42 91.5333 154.255 92.4844 154.085L92.7708 155.678C92.5521 155.718 70.9362 159.751 71.3363 172.098C73.0744 185.882 100.556 187.002 100.834 187.01L100.943 187.015L101.048 187.047C112.437 190.598 121.978 188.23 122.074 188.206L122.266 188.156L122.461 188.202C134.219 190.987 143.239 185.482 143.329 185.427L143.502 185.32L143.705 185.307C143.935 185.292 166.6 183.654 166.355 170.751C166.11 157.795 145.815 155.536 145.609 155.517L145.776 153.907C146.67 153.999 167.702 156.334 167.973 170.722C168.235 184.634 146.501 186.717 144.009 186.91C142.623 187.723 133.838 192.489 122.275 189.824C121.47 190.008 118.431 190.637 114.07 190.637Z" fill="#1B1E51"/>
<path d="M94.3012 162.502C101.673 163.363 108.906 165.884 114.992 170.176L113.939 170.248C116.448 167.957 119.203 165.952 122.631 165.281C127.052 164.529 129.765 167.316 129.429 171.682C129.201 175.064 127.931 178.167 126.468 181.147C124.995 184.074 123.226 186.824 121.289 189.437C121.022 189.796 120.517 189.872 120.156 189.605C119.796 189.339 119.721 188.832 119.988 188.473C123.521 183.552 127.24 177.725 127.811 171.597C128.058 168.151 126.241 166.324 122.9 166.877C119.973 167.425 117.249 169.393 115.078 171.398C114.791 171.689 114.334 171.715 114.024 171.47C109.752 168.147 104.736 165.84 99.5374 164.358C97.7949 163.868 96.0087 163.453 94.2312 163.199C93.8049 163.16 93.8071 162.469 94.3012 162.502Z" fill="#1B1E51"/>
<path opacity="0.1" d="M72.9584 165.622C72.9584 165.622 78.4066 182.758 101.481 182.482C101.481 182.482 107.749 188.475 123.659 184.343C123.659 184.343 132.682 187.924 141.98 181.588C141.98 181.588 171.263 181.555 160.926 161.063L161.749 160.667C161.749 160.667 165.675 163.51 166.346 166.35C167.018 169.192 168.95 176.175 159.77 181.853C159.77 181.853 147.439 186.652 144.133 185.981C144.133 185.981 131.529 192.362 122.437 189.081C122.437 189.081 107.662 191.457 100.998 188.047C100.998 188.047 75.9252 187.789 71.4498 174.564C71.4498 174.561 68.5748 169.01 72.9584 165.622Z" fill="#1B1E51"/>
<path d="M115.381 170.902C115.034 173.969 114.448 177.043 112.896 179.754C112.804 179.909 112.603 179.96 112.447 179.868C112.299 179.78 112.246 179.594 112.321 179.444C112.924 178.123 113.252 176.68 113.468 175.231C113.672 173.79 113.777 172.283 113.761 170.84C113.781 169.717 115.447 169.776 115.381 170.902Z" fill="#1B1E51"/>
<path d="M128.215 168.062C133.31 165.49 138.642 163.182 144.25 162.012C145.061 161.848 145.857 161.71 146.72 161.645C146.954 161.627 147.16 161.802 147.177 162.038C147.195 162.277 147.011 162.482 146.775 162.495C146.025 162.583 145.225 162.749 144.455 162.937C139.781 164.098 135.358 166.105 131.099 168.328L128.985 169.487L128.968 169.498C128.003 169.992 127.251 168.575 128.215 168.062Z" fill="#1B1E51"/>
<path d="M96.7236 105.273C96.7236 105.273 83.8878 107.761 75.8182 117.713C75.8182 117.713 76.1527 124.038 74.1347 128.54C71.9724 133.365 66.6248 137.622 66.6248 137.622C66.6248 137.622 77.3202 141.778 91.8875 134.355L91.0851 146.885L91.5508 147.746L101.774 148.251H130.832L146.313 147.746L145.284 133.957C145.284 133.957 161.635 141.494 169.93 137.23C169.93 137.23 160.17 130.147 161.882 118.059C161.882 118.059 152.949 107.632 139.667 105.006C139.669 105.009 120.368 115.87 96.7236 105.273Z" fill="white"/>
<path opacity="0.1" d="M93.9205 106.659C93.9205 106.659 112.858 130.558 149.98 108.798L143.635 105.89C143.635 105.89 135.425 109.994 132.539 110.973C129.653 111.953 114.07 115.982 96.8677 107.147L95.0858 105.89L93.9205 106.659Z" fill="#1B1E51"/>
<path d="M74.6745 140.252C67.9385 140.252 64.1147 137.462 63.8523 137.263C63.5222 137.014 63.4326 136.557 63.6446 136.203L74.4515 118.148C74.4668 118.122 74.4821 118.098 74.5018 118.076C84.6288 104.722 104.306 102.87 105.138 102.798C105.58 102.752 105.976 103.089 106.015 103.535C106.055 103.981 105.724 104.372 105.278 104.412C105.082 104.429 85.5142 106.277 75.818 119.018L65.433 136.369C67.8642 137.81 77.3549 142.132 92.1344 132.862C92.5126 132.624 93.0133 132.74 93.2494 133.118C93.4855 133.496 93.3718 133.997 92.9936 134.233C85.5973 138.87 79.4166 140.252 74.6745 140.252Z" fill="#1B1E51"/>
<path d="M162.761 140.044C158.021 140.044 151.838 138.662 144.44 134.021C144.061 133.783 143.945 133.284 144.184 132.906C144.422 132.528 144.921 132.412 145.299 132.65C160.078 141.92 169.567 137.6 172 136.157L161.615 118.806C151.919 106.065 132.351 104.217 132.155 104.2C131.709 104.16 131.381 103.769 131.418 103.323C131.457 102.877 131.846 102.54 132.295 102.586C133.128 102.658 152.804 104.508 162.931 117.862C162.949 117.886 162.966 117.91 162.982 117.934L173.788 135.989C174.001 136.343 173.911 136.802 173.581 137.049C173.318 137.252 169.495 140.042 162.761 140.044Z" fill="#1B1E51"/>
<path d="M119.886 5.22363H117.862V33.3482H119.886V5.22363Z" fill="#1B1E51"/>
<path d="M118.874 7.49083C120.724 7.49083 122.223 5.99124 122.223 4.14141C122.223 2.29158 120.724 0.791992 118.874 0.791992C117.024 0.791992 115.524 2.29158 115.524 4.14141C115.524 5.99124 117.024 7.49083 118.874 7.49083Z" fill="#1B1E51"/>
<path d="M154.696 55.3643L167.405 57.8173L169.2 62.5681C169.2 62.5681 169.974 79.0813 166.353 81.8688C162.733 84.6564 152.599 83.7075 152.599 83.7075L154.696 55.3643Z" fill="white"/>
<path d="M83.0438 55.3643L70.3348 57.8173L68.5399 62.5681C68.5399 62.5681 67.7659 79.0813 71.3864 81.8688C75.007 84.6564 85.1405 83.7075 85.1405 83.7075L83.0438 55.3643Z" fill="white"/>
<path d="M86.6185 86.5322L85.4358 86.3813C83.3806 86.1212 73.0372 84.7307 71.2926 82.9882C69.338 81.038 68.352 77.0764 67.8666 73.9937L67.8251 73.7292C66.9396 67.9049 67.1189 61.0749 68.2077 59.1137C69.0975 57.5112 75.4531 55.0013 77.3814 54.2689L78.2275 53.9475L86.6185 86.5322ZM69.3927 73.281L69.4255 73.4887C70.042 77.5552 71.1111 80.522 72.436 81.8447C73.2777 82.6843 78.9993 83.8693 84.4541 84.6214L77.1081 56.1119C73.6494 57.4762 70.007 59.2252 69.62 59.9008C68.9204 61.1579 68.4832 67.1069 69.3927 73.281Z" fill="#1B1E51"/>
<path d="M151.128 86.5322L159.523 53.9497L160.369 54.2711C162.295 55.0013 168.653 57.5112 169.543 59.1159C170.632 61.0771 170.809 67.9049 169.926 73.7314L169.882 73.9981C169.394 77.0808 168.41 81.0424 166.454 82.9926C164.709 84.735 154.366 86.1255 152.31 86.3857L151.128 86.5322ZM160.638 56.1098L153.292 84.6192C158.747 83.8671 164.469 82.6821 165.31 81.8426C166.637 80.5199 167.706 77.553 168.321 73.4865L168.362 73.222C169.259 67.0697 168.824 61.1536 168.126 59.8986C167.737 59.2231 164.097 57.474 160.638 56.1098Z" fill="#1B1E51"/>
<path d="M118.873 113.109C143.463 113.109 163.397 93.1753 163.397 68.5854C163.397 43.9954 143.463 24.0613 118.873 24.0613C94.2832 24.0613 74.3491 43.9954 74.3491 68.5854C74.3491 93.1753 94.2832 113.109 118.873 113.109Z" fill="white"/>
<path d="M118.873 114.121C93.7634 114.121 73.3368 93.6946 73.3368 68.5849C73.3368 43.4752 93.7634 23.0486 118.873 23.0486C143.983 23.0486 164.409 43.4752 164.409 68.5849C164.409 93.6946 143.981 114.121 118.873 114.121ZM118.873 25.0731C94.8806 25.0731 75.3613 44.5924 75.3613 68.5849C75.3613 92.5774 94.8806 112.099 118.873 112.099C142.866 112.099 162.387 92.5796 162.387 68.5849C162.387 44.5902 142.866 25.0731 118.873 25.0731Z" fill="#1B1E51"/>
<path d="M161.93 57.2073C143.303 28.7526 108.814 21.2514 84.1042 46.8617C81.0237 50.0253 78.1924 53.4753 75.8181 57.2073C77.7596 53.1801 80.346 49.4809 83.2253 46.0593C95.5364 31.3827 113.788 25.1911 132.284 30.9848C145.196 35.2153 155.797 45.2351 161.93 57.2073Z" fill="#1B1E51"/>
<path d="M135.264 89.5384L124.954 85.1921C121.067 83.5523 116.681 83.5523 112.791 85.1921L102.481 89.5384C90.9327 94.4052 78.5889 84.8882 78.5889 71.121V68.4472C78.5889 59.0089 84.5925 50.8999 92.9004 49.1137L92.9857 49.0962C110.048 45.4276 127.695 45.4276 144.757 49.0962L144.843 49.1137C153.151 50.8999 159.154 59.0089 159.154 68.4472V71.121C159.159 84.8882 146.812 94.4052 135.264 89.5384Z" fill="#1B1E51"/>
<path d="M85.6352 74.8378C84.389 74.8378 83.3308 73.8846 83.2193 72.6209C83.1822 72.2055 83.1647 71.7682 83.1647 71.3244V69.4442C83.1647 60.4672 87.9614 54.7304 96.324 53.705C97.6577 53.541 98.8667 54.4877 99.0307 55.8191C99.1947 57.1506 98.248 58.3618 96.9165 58.5258C90.9304 59.2604 88.0205 62.8306 88.0205 69.4442V71.3244C88.0205 71.6283 88.0336 71.9213 88.0576 72.1967C88.1757 73.5326 87.1875 74.711 85.8516 74.8269C85.7795 74.8356 85.7073 74.8378 85.6352 74.8378Z" fill="white"/>
<path d="M161.931 80.4675C155.614 92.9579 144.427 103.572 130.734 107.333C126.889 108.393 122.84 108.822 118.874 108.793C112.044 108.903 105.13 107.387 99.0351 104.265C90.9304 100.205 84.2141 93.7143 79.1725 86.2678C77.9241 84.4094 76.7785 82.4811 75.8165 80.4697C78.1952 84.2061 81.033 87.6605 84.1179 90.8262C93.2086 100.284 105.542 106.784 118.874 106.369C136.9 106.924 152.471 95.0392 161.931 80.4675Z" fill="#1B1E51"/>
<path d="M98.2429 117.272C94.7492 127.198 89.2397 143.33 93.3281 153.396C93.7238 154.358 92.318 155.01 91.8501 154.054C88.2296 145.738 91.3079 134.069 94.0998 125.814C95.1492 122.825 96.3408 119.889 97.7597 117.055C97.904 116.776 98.3631 116.955 98.2429 117.272Z" fill="#1B1E51"/>
<path d="M139.702 117.056C144.356 126.579 150.113 143.93 145.614 154.054C145.425 154.461 144.945 154.638 144.54 154.45C144.138 154.264 143.961 153.79 144.138 153.388C147.384 145.279 144.527 134.347 142.194 126.192C141.287 123.197 140.307 120.21 139.219 117.27C139.105 116.983 139.542 116.749 139.702 117.056Z" fill="#1B1E51"/>
<path d="M143.384 154.974C143.384 154.974 127.548 155.761 118.873 155.761C110.198 155.761 94.3623 154.974 94.3623 154.974C92.7881 154.974 91.378 154.207 90.8248 153.05L90.2039 151.752C89.2769 149.815 91.1025 147.746 93.7414 147.746C93.7414 147.746 100.023 148.533 118.873 148.533C137.723 148.533 144.004 147.746 144.004 147.746C146.641 147.746 148.467 149.812 147.542 151.752L146.921 153.05C146.368 154.209 144.958 154.974 143.384 154.974Z" fill="white"/>
<path d="M118.873 156.573C110.276 156.573 94.4804 155.792 94.323 155.783H94.3208C92.4624 155.783 90.7877 154.848 90.0968 153.4L89.4759 152.102C88.9884 151.081 89.0583 149.939 89.6683 148.971C90.4576 147.718 92.0208 146.938 93.7414 146.938L93.842 146.944C93.9054 146.953 100.324 147.725 118.873 147.725C137.422 147.725 143.841 146.951 143.904 146.944L144.005 146.938C145.727 146.938 147.288 147.716 148.078 148.971C148.688 149.939 148.76 151.081 148.27 152.102L147.649 153.4C146.96 154.843 145.294 155.777 143.403 155.783C142.765 155.816 127.332 156.573 118.873 156.573ZM93.6955 148.558C92.5433 148.571 91.5267 149.056 91.0369 149.834C90.8161 150.184 90.6194 150.742 90.9342 151.404L91.5551 152.703C91.9727 153.577 93.1008 154.165 94.3623 154.165C94.5613 154.174 110.316 154.952 118.873 154.952C127.43 154.952 143.185 154.174 143.344 154.165L143.384 154.163C144.645 154.163 145.773 153.575 146.191 152.701L146.812 151.402C147.129 150.739 146.93 150.182 146.709 149.832C146.219 149.056 145.203 148.568 144.05 148.555C143.362 148.636 136.866 149.342 118.873 149.342C100.882 149.345 94.3842 148.638 93.6955 148.558Z" fill="#1B1E51"/>
<path d="M135.972 154.275C137.346 154.275 138.46 153.161 138.46 151.787C138.46 150.413 137.346 149.299 135.972 149.299C134.598 149.299 133.484 150.413 133.484 151.787C133.484 153.161 134.598 154.275 135.972 154.275Z" fill="#1B1E51"/>
<path d="M101.774 154.275C103.148 154.275 104.262 153.161 104.262 151.787C104.262 150.413 103.148 149.299 101.774 149.299C100.4 149.299 99.286 150.413 99.286 151.787C99.286 153.161 100.4 154.275 101.774 154.275Z" fill="#1B1E51"/>
<path d="M102.697 152.355L102.273 151.216C102.343 151.19 104.059 150.517 104.636 148.617C105.22 146.697 104.415 144.106 102.305 141.12C100.073 137.961 99.2773 135.105 99.9354 132.63C100.736 129.622 103.392 128.354 103.506 128.302L104.017 129.401L103.761 128.85L104.019 129.399C103.998 129.41 101.75 130.499 101.103 132.956C100.55 135.064 101.287 137.574 103.296 140.418C105.67 143.778 106.51 146.662 105.79 148.991C105.027 151.463 102.791 152.318 102.697 152.355Z" fill="#1B1E51"/>
<path d="M137.325 152.388C137.043 152.353 130.408 151.499 129.079 147.815C128.394 145.919 129.234 143.702 131.573 141.225C134.77 137.839 136.28 134.776 135.937 132.364C135.648 130.32 134.147 129.415 134.083 129.378L134.691 128.328C134.774 128.376 136.748 129.539 137.133 132.165C137.551 135.001 135.976 138.328 132.454 142.06C130.456 144.177 129.704 145.976 130.22 147.406C131.114 149.885 135.758 150.976 137.472 151.186L137.325 152.388Z" fill="#1B1E51"/>
<path d="M131.849 136.157H106.302C104.898 136.157 103.761 135.02 103.761 133.616V124.176C103.761 122.772 104.898 121.635 106.302 121.635H131.849C133.252 121.635 134.389 122.772 134.389 124.176V133.616C134.391 135.02 133.252 136.157 131.849 136.157Z" fill="white"/>
<path d="M129.687 136.765H108.464C105.537 136.765 103.154 134.382 103.154 131.454V126.338C103.154 123.411 105.537 121.028 108.464 121.028H129.687C132.614 121.028 134.997 123.411 134.997 126.338V131.454C134.997 134.382 132.616 136.765 129.687 136.765ZM108.464 122.243C106.206 122.243 104.367 124.082 104.367 126.34V131.456C104.367 133.715 106.206 135.553 108.464 135.553H129.687C131.945 135.553 133.784 133.715 133.784 131.456V126.34C133.784 124.082 131.945 122.243 129.687 122.243H108.464Z" fill="#1B1E51"/>
<path d="M112.671 128.879C112.763 129.045 112.806 129.228 112.78 129.412C112.763 129.589 112.688 129.762 112.566 129.908C112.328 130.215 111.91 130.424 111.401 130.497C111.248 130.521 111.088 130.534 110.922 130.534C110.793 130.534 110.657 130.527 110.517 130.51C110.181 130.479 109.824 130.4 109.457 130.282C109.352 130.252 109.273 130.166 109.249 130.061C109.236 130.007 108.954 128.78 109.144 127.595C109.162 127.473 109.254 127.381 109.372 127.35C109.359 127.337 109.354 127.32 109.348 127.307C109.273 127.154 109.335 126.97 109.483 126.896C109.973 126.651 110.441 126.533 110.876 126.546C111.269 126.552 111.624 126.675 111.871 126.889C112.017 127.018 112.129 127.178 112.177 127.35C112.238 127.534 112.231 127.724 112.17 127.908C112.122 128.061 112.028 128.203 111.906 128.332C112.352 128.468 112.566 128.699 112.671 128.879ZM112.137 129.191C112.008 128.957 111.536 128.78 110.769 128.842C110.633 128.866 110.493 128.879 110.345 128.892H110.327C110.167 128.892 110.039 128.776 110.021 128.623C110.004 128.457 110.113 128.31 110.279 128.286C110.421 128.262 110.554 128.242 110.69 128.238C110.917 128.194 111.114 128.129 111.267 128.048C111.433 127.95 111.549 127.84 111.593 127.718C111.648 127.552 111.538 127.423 111.464 127.361C111.328 127.239 111.108 127.171 110.856 127.165C110.53 127.158 110.15 127.256 109.759 127.453L109.697 127.471C109.746 127.532 109.765 127.613 109.752 127.698C109.623 128.52 109.746 129.39 109.813 129.753C110.371 129.913 110.88 129.961 111.311 129.895C111.661 129.845 111.949 129.712 112.089 129.532C112.155 129.449 112.216 129.32 112.137 129.191Z" fill="#4851A0"/>
<path d="M116.127 128.995C116.097 129.198 116.012 129.392 115.863 129.552C115.751 129.681 115.557 129.694 115.434 129.576C115.305 129.467 115.292 129.27 115.41 129.148C115.57 128.964 115.52 128.78 115.478 128.682C115.41 128.529 115.244 128.376 115.023 128.376C114.877 128.376 114.741 128.455 114.599 128.61C114.47 128.756 114.348 128.973 114.236 129.248C114.039 129.751 113.961 130.26 113.961 130.267C113.943 130.413 113.825 130.518 113.679 130.532H113.661C113.526 130.532 113.403 130.44 113.366 130.311C113.349 130.25 112.973 128.905 113.414 127.95C113.482 127.79 113.666 127.722 113.819 127.796C113.972 127.864 114.039 128.048 113.972 128.201C113.91 128.323 113.873 128.47 113.843 128.636C113.935 128.47 114.033 128.323 114.138 128.208C114.254 128.072 114.383 127.969 114.518 127.895C114.678 127.81 114.851 127.766 115.021 127.766C115.456 127.766 115.856 128.03 116.04 128.435C116.121 128.608 116.151 128.804 116.127 128.995Z" fill="#4851A0"/>
<path d="M119.122 130.21C119.122 130.381 118.987 130.516 118.816 130.516C118.707 130.516 118.595 130.466 118.51 130.381C118.466 130.333 118.425 130.272 118.381 130.173C118.296 130.272 118.204 130.333 118.13 130.377C117.964 130.475 117.773 130.519 117.583 130.519C117.362 130.519 117.135 130.457 116.934 130.335C116.51 130.084 116.271 129.624 116.284 129.115C116.298 128.728 116.444 128.372 116.709 128.116C116.947 127.882 117.273 127.749 117.592 127.749C117.83 127.755 118.058 127.827 118.237 127.976C118.237 127.945 118.243 127.932 118.243 127.928C118.25 127.762 118.396 127.626 118.563 127.639C118.735 127.646 118.862 127.792 118.851 127.958C118.851 127.965 118.834 128.413 118.838 128.896C118.851 129.596 118.917 129.854 118.947 129.939C119.048 129.983 119.122 130.088 119.122 130.21ZM118.11 129.141C118.103 128.656 117.907 128.363 117.583 128.356H117.577C117.424 128.356 117.257 128.431 117.135 128.553C117.03 128.652 116.908 128.835 116.897 129.13C116.883 129.541 117.135 129.745 117.246 129.806C117.443 129.922 117.657 129.941 117.824 129.843C118.005 129.738 118.11 129.487 118.11 129.141Z" fill="#4851A0"/>
<path d="M119.695 130.258C119.512 130.051 119.389 129.718 119.339 129.277C119.295 128.896 119.308 128.455 119.37 128.006C119.394 127.84 119.547 127.724 119.719 127.748C119.886 127.766 120.001 127.925 119.977 128.092C119.855 128.975 119.977 129.644 120.154 129.852C120.198 129.902 120.229 129.902 120.24 129.902C120.412 129.902 120.546 130.044 120.546 130.208C120.546 130.379 120.41 130.514 120.24 130.514C120.032 130.516 119.842 130.431 119.695 130.258ZM119.418 126.891C119.418 126.708 119.571 126.555 119.761 126.555C119.951 126.555 120.104 126.708 120.104 126.891C120.104 127.082 119.951 127.235 119.761 127.235C119.571 127.235 119.418 127.082 119.418 126.891Z" fill="#4851A0"/>
<path d="M125.48 128.498C125.596 128.804 125.616 129.167 125.528 129.524C125.443 129.891 125.253 130.223 124.988 130.451C124.866 130.567 124.669 130.556 124.56 130.427C124.45 130.304 124.455 130.107 124.584 129.998C124.958 129.661 125.043 129.078 124.91 128.721C124.824 128.494 124.665 128.378 124.424 128.378C124.217 128.378 123.965 128.549 123.731 128.85C123.731 128.85 123.731 128.857 123.725 128.863C123.742 128.986 123.749 129.108 123.749 129.207C123.749 129.502 123.705 129.784 123.626 130.011C123.578 130.14 123.521 130.25 123.46 130.33C123.32 130.508 123.161 130.534 123.08 130.534C122.92 130.534 122.78 130.459 122.699 130.326C122.645 130.234 122.614 130.123 122.614 129.989C122.614 129.659 122.798 129.161 123.069 128.732C123.062 128.695 123.051 128.664 123.038 128.634C122.933 128.382 122.793 128.382 122.732 128.382C122.586 128.382 122.443 128.461 122.308 128.616C122.172 128.769 122.05 128.984 121.941 129.266C121.75 129.762 121.672 130.265 121.672 130.271C121.654 130.418 121.536 130.523 121.39 130.536H121.372C121.237 130.536 121.114 130.444 121.077 130.315C121.06 130.254 120.683 128.909 121.125 127.954C121.193 127.794 121.377 127.727 121.53 127.801C121.683 127.869 121.75 128.052 121.683 128.205C121.621 128.328 121.584 128.474 121.554 128.64C121.645 128.474 121.744 128.328 121.849 128.212C121.965 128.076 122.094 127.974 122.229 127.899C122.389 127.814 122.562 127.77 122.732 127.77C123.051 127.77 123.32 127.923 123.499 128.199C123.795 127.923 124.107 127.77 124.426 127.77C124.684 127.77 124.912 127.845 125.102 127.985C125.266 128.105 125.399 128.284 125.48 128.498Z" fill="#4851A0"/>
<path d="M128.931 129.841C128.937 130.296 128.894 131.135 128.581 131.601C128.373 131.913 128.041 132.086 127.698 132.086C127.63 132.086 127.562 132.08 127.49 132.069C127.276 132.025 127.079 131.916 126.919 131.756C126.76 131.59 126.644 131.369 126.594 131.124C126.556 130.958 126.668 130.792 126.832 130.761C126.998 130.724 127.158 130.829 127.195 130.995C127.256 131.295 127.453 131.437 127.612 131.467C127.79 131.505 127.956 131.424 128.072 131.26C128.231 131.026 128.323 130.486 128.316 129.85C128.316 129.683 128.303 129.517 128.292 129.36C128.163 129.659 128.023 129.906 127.857 130.09C127.741 130.226 127.612 130.328 127.477 130.403C127.317 130.488 127.145 130.532 126.974 130.532C126.71 130.532 126.484 130.457 126.294 130.317C126.128 130.195 125.995 130.011 125.914 129.795C125.798 129.489 125.778 129.126 125.866 128.772C125.951 128.404 126.141 128.072 126.406 127.845C126.528 127.735 126.725 127.74 126.834 127.869C126.943 127.998 126.939 128.188 126.81 128.304C126.436 128.634 126.351 129.224 126.484 129.574C126.57 129.808 126.729 129.917 126.974 129.917C127.121 129.917 127.263 129.843 127.398 129.683C127.534 129.53 127.656 129.316 127.765 129.034C127.956 128.538 128.034 128.035 128.034 128.028C128.052 127.893 128.163 127.784 128.299 127.77C128.439 127.753 128.568 127.832 128.625 127.961C128.808 128.424 128.924 129.13 128.931 129.841Z" fill="#4851A0"/>
<path d="M129.226 130.204C129.226 130.02 129.379 129.867 129.569 129.867C129.759 129.867 129.912 130.02 129.912 130.204C129.912 130.394 129.759 130.547 129.569 130.547C129.381 130.547 129.226 130.394 129.226 130.204Z" fill="#EA8730"/>
<path d="M106.466 129.749C106.937 129.749 107.319 129.367 107.319 128.896C107.319 128.425 106.937 128.043 106.466 128.043C105.995 128.043 105.613 128.425 105.613 128.896C105.613 129.367 105.995 129.749 106.466 129.749Z" stroke="#1B1E51" strokeWidth="0.551684" stroke-miterlimit="10"/>
<path d="M131.685 129.749C132.156 129.749 132.538 129.367 132.538 128.896C132.538 128.425 132.156 128.043 131.685 128.043C131.214 128.043 130.832 128.425 130.832 128.896C130.832 129.367 131.214 129.749 131.685 129.749Z" stroke="#1B1E51" strokeWidth="0.551684" stroke-miterlimit="10"/>
<path d="M75.4968 118.004C75.4968 118.004 78.0088 129.732 67.0445 137.965C67.0445 137.965 59.8297 135.739 53.6949 129.272C53.6949 129.272 39.2981 128.798 43.4259 112.914C43.4259 112.914 39.6304 110.671 41.7949 106.552C43.9593 102.436 46.7556 98.8434 49.2895 100.531C51.4234 101.955 49.6087 104.082 48.9988 105.335C47.7329 107.934 48.7867 109.346 48.7867 109.346C48.7867 109.346 52.3875 107.604 54.8253 110.778C54.8253 110.778 56.8213 107.921 55.6735 106.021C54.482 104.047 51.0408 102.591 51.8737 100.73C52.7067 98.8697 54.8821 97.5775 58.6819 99.8469C62.7615 102.285 62.5735 104.384 63.2753 108.765C63.9093 112.724 67.1276 115.151 67.1276 115.151L75.4968 118.004Z" fill="white"/>
<path opacity="0.1" d="M49.2021 117.271C49.2021 117.271 47.8903 112.413 45.6974 115.54C43.5045 118.666 48.3232 123.824 56.0211 124.692C56.0211 124.692 59.2328 131.773 64.8035 132.337C71.2772 132.991 75.5142 122.247 75.5142 122.247C75.5142 122.247 74.2243 129.416 72.9584 131.428C71.6926 133.439 67.4555 137.504 67.4555 137.504C67.4555 137.504 65.5644 137.372 65.3392 137.318C65.114 137.263 58.9836 133.682 58.9836 133.682L53.4041 129.239C53.4041 129.239 48.0324 127.689 47.9274 127.654C47.8225 127.619 44.449 124.246 44.449 124.246C44.449 124.246 42.0397 121.703 42.4529 118.067C42.8661 114.431 43.0717 112.09 45.9313 111.572C48.7888 111.056 49.2021 114.74 49.2021 114.74V117.271Z" fill="#1B1E51"/>
<path opacity="0.1" d="M49.2022 100.964C49.2022 100.964 42.1426 108.264 44.8274 111.813L42.6389 112.711C42.6389 112.711 39.7989 109.712 41.7272 106.233C43.6555 102.755 46.8235 100.343 46.8235 100.343L49.2022 100.964Z" fill="#1B1E51"/>
<path d="M76.1023 117.466C76.2356 117.622 76.3034 117.838 76.3253 118.041C76.6051 119.939 76.5549 121.88 76.2925 123.776C75.7743 127.67 74.1477 131.408 71.6663 134.447C70.4398 136.065 68.8678 137.163 67.532 138.614C67.3265 138.798 67.0466 138.835 66.8083 138.741C65.4484 138.286 64.2219 137.736 62.9888 137.117C59.3137 135.269 55.9599 132.801 53.1111 129.832L53.6708 130.083C49.6546 129.79 45.5225 127.996 43.4236 124.39C41.3554 120.881 41.6571 116.491 42.6431 112.713L43.0148 113.614C40.7694 112.197 39.7113 109.53 40.7017 107.016C40.8853 106.618 41.0864 106.126 41.3095 105.75C42.6715 103.397 44.0598 100.787 46.6725 99.5648C48.052 98.9352 49.836 99.5058 50.6909 100.811C52.4224 103.607 48.0761 106.098 49.4338 108.865L48.4324 108.621C49.6546 108.094 50.9357 107.923 52.241 108.192C53.5331 108.441 54.6743 109.272 55.4658 110.289L54.1605 110.319C54.53 109.762 54.8711 109.067 55.0547 108.419C55.5663 106.871 54.8296 106.036 53.7692 105.094C52.5645 103.961 50.3105 102.49 51.1128 100.463C53.3735 95.4349 59.9346 98.6641 62.2849 101.957C63.73 104.073 63.66 106.692 64.1629 109.082C64.4733 110.505 65.1686 111.832 66.089 112.967C66.535 113.511 67.0794 114.088 67.6151 114.513L67.3877 114.392C70.3042 115.381 73.2251 116.417 76.1023 117.466ZM74.8911 118.542C72.1232 117.632 69.3335 116.843 66.64 115.8C64.3159 113.914 62.7003 111.192 62.3679 108.201L62.1952 107.025C61.9635 105.466 61.7317 103.977 60.949 102.862C59.7159 101.205 57.6237 99.895 55.6035 99.4949C54.3027 99.2522 53.0936 99.8862 52.6105 101.078C52.5339 101.259 52.5471 101.377 52.6345 101.602C53.1024 102.51 54.0578 103.12 54.8623 103.894C57.5253 106.069 57.2367 108.5 55.4898 111.242C55.1947 111.699 54.5016 111.708 54.1846 111.272C53.5921 110.531 52.8378 109.954 51.9043 109.773C51.2243 109.622 50.4722 109.67 49.7879 109.854C49.5343 109.917 49.2785 110.011 49.0861 110.098C48.7407 110.249 48.345 110.129 48.1373 109.832C47.1556 108.312 47.5754 106.347 48.3362 104.851C48.7866 103.948 49.4993 103.089 49.4819 102.121C49.425 101.567 48.8916 101.172 48.3996 101.001C46.0297 100.282 43.0716 105.711 42.2124 107.584C41.4997 109.397 42.2649 111.198 43.8543 112.232C44.1582 112.425 44.2916 112.788 44.2063 113.12C43.7472 114.902 43.452 116.725 43.5023 118.52C43.5307 120.265 43.9243 122.066 44.8163 123.57C46.5806 126.647 50.2886 128.21 53.7211 128.466C53.9397 128.477 54.1387 128.573 54.2808 128.717C55.1969 129.648 56.1326 130.562 57.1514 131.384C60.1466 133.855 63.6272 135.914 67.2806 137.193L66.5569 137.32C68.225 136.481 69.4384 135 70.6409 133.621C73.9816 129.528 75.5229 124.043 74.8146 118.811C74.7927 118.636 74.7446 118.374 74.7118 118.205C74.7096 118.275 74.8167 118.474 74.8911 118.542Z" fill="#1B1E51"/>
<path d="M161.939 117.851C161.939 117.851 159.427 129.578 170.391 137.812C170.391 137.812 177.606 135.586 183.741 129.119C183.741 129.119 198.137 128.645 194.01 112.761C194.01 112.761 197.805 110.518 195.641 106.399C193.476 102.282 190.68 98.6903 188.146 100.378C186.012 101.801 187.827 103.929 188.437 105.181C189.703 107.781 188.649 109.193 188.649 109.193C188.649 109.193 185.048 107.451 182.61 110.625C182.61 110.625 180.614 107.768 181.762 105.868C182.953 103.894 186.395 102.438 185.562 100.577C184.729 98.7166 182.553 97.4245 178.754 99.6939C174.674 102.132 174.862 104.23 174.16 108.612C173.526 112.571 170.308 114.998 170.308 114.998L161.939 117.851Z" fill="white"/>
<path opacity="0.1" d="M187.589 117.272C187.589 117.272 188.9 112.414 191.093 115.54C193.286 118.667 188.467 123.824 180.769 124.692C180.769 124.692 177.558 131.773 171.987 132.338C165.513 132.991 161.276 122.248 161.276 122.248C161.276 122.248 162.988 129.336 164.254 131.349C165.52 133.363 169.335 137.506 169.335 137.506C169.335 137.506 171.226 137.375 171.451 137.32C171.677 137.265 177.807 133.684 177.807 133.684L183.386 129.242C183.386 129.242 188.758 127.692 188.863 127.657C188.966 127.622 192.342 124.248 192.342 124.248C192.342 124.248 194.751 121.706 194.338 118.07C193.924 114.434 193.719 112.092 190.859 111.574C188.002 111.058 187.589 114.742 187.589 114.742V117.272Z" fill="#1B1E51"/>
<path d="M162.544 118.389C162.617 118.315 162.724 118.133 162.724 118.05C162.676 118.249 162.654 118.463 162.621 118.656C161.904 123.89 163.443 129.377 166.784 133.474C167.367 134.189 167.986 134.874 168.657 135.508C169.344 136.131 169.98 136.839 170.879 137.165L170.155 137.038C173.808 135.759 177.289 133.697 180.284 131.229C181.303 130.407 182.239 129.493 183.155 128.562C183.308 128.404 183.511 128.321 183.714 128.31C187.147 128.055 190.855 126.491 192.619 123.415C193.511 121.911 193.905 120.109 193.933 118.365C193.983 116.57 193.688 114.746 193.229 112.965C193.139 112.615 193.29 112.261 193.579 112.077C195.164 111.052 195.938 109.237 195.221 107.429C194.263 105.393 192.991 103.227 191.364 101.703C190.485 100.933 189.576 100.481 188.767 100.964C188.369 101.163 187.995 101.508 187.951 101.965C187.934 102.934 188.647 103.793 189.097 104.696C189.694 105.874 190.059 107.239 189.759 108.579C189.617 109.22 189.195 110.3 188.347 109.943C187.943 109.757 187.398 109.615 186.935 109.561C185.496 109.357 184.119 109.965 183.251 111.117C182.973 111.485 182.442 111.552 182.09 111.251C181.731 110.861 181.526 110.378 181.294 109.941C180.068 107.414 180.455 105.498 182.573 103.741C183.375 102.967 184.333 102.357 184.801 101.449C184.888 101.224 184.901 101.106 184.825 100.925C184.593 100.378 184.171 99.8687 183.647 99.5866C181.734 98.6946 179.53 100.083 177.958 101.2C175.625 102.844 175.457 105.317 175.065 108.045C174.733 111.036 173.119 113.758 170.793 115.645C168.102 116.69 165.312 117.479 162.544 118.389ZM161.335 117.313C164.212 116.264 167.131 115.227 170.048 114.235L169.82 114.355C170.356 113.931 170.9 113.354 171.346 112.809C172.267 111.675 172.962 110.348 173.273 108.924C173.773 106.535 173.705 103.916 175.151 101.799C177.499 98.5066 184.064 95.2796 186.323 100.306C187.125 102.335 184.871 103.806 183.666 104.937C182.608 105.874 181.867 106.721 182.381 108.262C182.567 108.909 182.905 109.604 183.275 110.162L181.97 110.131C182.761 109.117 183.902 108.284 185.194 108.035C186.502 107.766 187.781 107.936 189.003 108.463L188.002 108.708C189.362 105.942 185.015 103.45 186.745 100.654C187.599 99.3483 189.386 98.7755 190.763 99.4074C193.376 100.63 194.762 103.242 196.126 105.592C196.342 105.971 196.559 106.456 196.734 106.858C197.722 109.375 196.67 112.035 194.421 113.457L194.792 112.556C195.781 116.334 196.082 120.724 194.012 124.233C191.913 127.838 187.781 129.631 183.765 129.926L184.324 129.675C180.496 133.632 175.839 136.745 170.627 138.584C170.378 138.684 170.089 138.636 169.903 138.457C169.619 138.02 169.243 137.716 168.867 137.401C168.126 136.767 167.402 136.109 166.744 135.385C163.721 132.171 161.733 127.995 161.147 123.619C160.883 121.725 160.83 119.784 161.108 117.886C161.136 117.685 161.2 117.468 161.335 117.313Z" fill="#1B1E51"/>
<path d="M42.781 112.348C44.3989 111.001 47.3482 109.593 48.918 111.727C50.103 113.627 49.845 115.667 49.7335 117.707C49.7138 117.923 49.5236 118.085 49.305 118.065C49.0951 118.048 48.9399 117.869 48.9442 117.663C48.9464 116.721 48.9136 115.779 48.7759 114.873C48.2512 111.113 46.266 111.557 43.9442 113.669C43.05 114.473 41.8715 113.14 42.781 112.348Z" fill="#1B1E51"/>
<path d="M194.401 112.348C192.783 111.001 189.834 109.593 188.264 111.727C187.079 113.627 187.337 115.667 187.449 117.707C187.468 117.923 187.659 118.085 187.877 118.065C188.087 118.048 188.242 117.869 188.238 117.663C188.236 116.721 188.269 115.779 188.406 114.873C188.931 111.113 190.916 111.557 193.238 113.669C194.132 114.473 195.311 113.14 194.401 112.348Z" fill="#1B1E51"/>
<g filter="url(#filter0_f_895_41003)">
<path d="M118.442 211.056C166.735 211.056 205.884 208.709 205.884 205.815C205.884 202.92 166.735 200.574 118.442 200.574C70.1491 200.574 31 202.92 31 205.815C31 208.709 70.1491 211.056 118.442 211.056Z" fill="black" fill-opacity="0.12"/>
</g>
<defs>
<filter id="filter0_f_895_41003" x="23.2764" y="192.85" width="190.331" height="25.9291" filterUnits="userSpaceOnUse" color-interpolation-filters="sRGB">
<feFlood flood-opacity="0" result="BackgroundImageFix"/>
<feBlend mode="normal" in="SourceGraphic" in2="BackgroundImageFix" result="shape"/>
<feGaussianBlur stdDeviation="3.86179" result="effect1_foregroundBlur_895_41003"/>
</filter>
</defs>
</svg>
