<svg width="438" height="524" viewBox="0 0 438 524" fill="none" xmlns="http://www.w3.org/2000/svg">
<path d="M64.06 204L65.36 198.454L61 194.724L66.76 194.23L69 189L71.24 194.23L77 194.724L72.64 198.454L73.94 204L69 201.059L64.06 204Z" fill="#EA580C"/>
<g opacity="0.2">
<path d="M71.7254 209.099C73.8401 210.939 73.7087 213.409 72.1854 215.145L70.6158 380.623L68.6345 378.965L66.259 215.633C64.1934 213.905 64.3248 211.435 65.6511 209.678C66.9775 207.921 69.6107 207.258 71.7254 209.099Z" fill="url(#paint0_linear_1169_34783)"/>
<path d="M67.2327 214.298C66.1152 213.363 65.9671 211.699 66.902 210.581C67.8369 209.464 69.5008 209.316 70.6183 210.251C71.7359 211.186 71.8839 212.849 70.949 213.967C70.0141 215.085 68.3503 215.233 67.2327 214.298Z" fill="white"/>
</g>
<path d="M382.06 253L383.36 247.454L379 243.724L384.76 243.23L387 238L389.24 243.23L395 243.724L390.64 247.454L391.94 253L387 250.059L382.06 253Z" fill="#EA580C"/>
<g opacity="0.2">
<path d="M389.725 258.099C391.84 259.939 391.709 262.409 390.185 264.145L388.616 429.623L386.634 427.965L384.259 264.633C382.193 262.905 382.325 260.435 383.651 258.678C384.977 256.921 387.611 256.258 389.725 258.099Z" fill="url(#paint1_linear_1169_34783)"/>
<path d="M385.233 263.298C384.115 262.363 383.967 260.699 384.902 259.581C385.837 258.464 387.501 258.316 388.618 259.251C389.736 260.186 389.884 261.849 388.949 262.967C388.014 264.085 386.35 264.233 385.233 263.298Z" fill="white"/>
</g>
<path d="M334.06 93L335.36 87.4539L331 83.7237L336.76 83.2303L339 78L341.24 83.2303L347 83.7237L342.64 87.4539L343.94 93L339 90.0592L334.06 93Z" fill="#EA580C"/>
<g opacity="0.2">
<path d="M341.725 98.0987C343.84 99.9395 343.709 102.409 342.185 104.145L340.616 269.623L338.634 267.965L336.259 104.633C334.193 102.905 334.325 100.435 335.651 98.6782C336.977 96.9215 339.611 96.258 341.725 98.0987Z" fill="url(#paint2_linear_1169_34783)"/>
<path d="M337.233 103.298C336.115 102.363 335.967 100.699 336.902 99.5814C337.837 98.4638 339.501 98.3158 340.618 99.2507C341.736 100.186 341.884 101.849 340.949 102.967C340.014 104.085 338.35 104.233 337.233 103.298Z" fill="white"/>
</g>
<path d="M237.06 30L238.36 24.4539L234 20.7237L239.76 20.2303L242 15L244.24 20.2303L250 20.7237L245.64 24.4539L246.94 30L242 27.0592L237.06 30Z" fill="#EA580C"/>
<g opacity="0.2">
<path d="M244.725 35.0987C246.84 36.9395 246.709 39.4093 245.185 41.1446L243.616 206.623L241.634 204.965L239.259 41.6329C237.193 39.9048 237.325 37.435 238.651 35.6782C239.977 33.9215 242.611 33.258 244.725 35.0987Z" fill="url(#paint3_linear_1169_34783)"/>
<path d="M240.233 40.2977C239.115 39.3628 238.967 37.6989 239.902 36.5814C240.837 35.4638 242.501 35.3158 243.618 36.2507C244.736 37.1856 244.884 38.8494 243.949 39.967C243.014 41.0845 241.35 41.2326 240.233 40.2977Z" fill="white"/>
</g>
<path d="M157.06 68L158.36 62.4539L154 58.7237L159.76 58.2303L162 53L164.24 58.2303L170 58.7237L165.64 62.4539L166.94 68L162 65.0592L157.06 68Z" fill="#EA580C"/>
<g opacity="0.2">
<path d="M164.725 73.0987C166.84 74.9395 166.709 77.4093 165.185 79.1446L163.616 244.623L161.634 242.965L159.259 79.6329C157.193 77.9048 157.325 75.435 158.651 73.6782C159.977 71.9215 162.611 71.258 164.725 73.0987Z" fill="url(#paint4_linear_1169_34783)"/>
<path d="M160.233 78.2977C159.115 77.3628 158.967 75.6989 159.902 74.5814C160.837 73.4638 162.501 73.3158 163.618 74.2507C164.736 75.1856 164.884 76.8494 163.949 77.967C163.014 79.0845 161.35 79.2326 160.233 78.2977Z" fill="white"/>
</g>
<path d="M122.626 313.008C197.677 267.805 248.212 279.98 249.828 280.462L282.806 264.189L265.98 288.297C279.44 282.27 291.555 276.846 306.361 267.202C326.821 276.364 377.702 414.866 330.59 446.207L326.552 420.893L280.786 466.699L285.498 433.55C270.242 447.212 260.596 458.261 245.116 466.699C250.501 449.221 228.964 443.194 214.157 443.194C207.427 452.234 208.1 448.618 200.024 466.699C167.046 464.288 165.027 445.002 165.027 427.523C165.027 420.785 148.874 417.88 144.836 416.674C140.798 415.469 113.204 408.839 111.858 396.182C127.337 397.388 151.566 353.39 104.455 353.39C67.125 353.39 55.7107 333.211 51.959 322.652C47.2479 309.392 29.7493 315.218 21 316.625C24.3651 313.008 33.1144 294.324 67.4385 309.392C101.763 324.46 109.839 319.035 122.626 313.008Z" fill="#1F4DE5"/>
<path opacity="0.2" d="M249 506.842C309.406 506.842 358.374 497.834 358.374 486.721C358.374 475.609 309.406 466.601 249 466.601C188.594 466.601 139.626 475.609 139.626 486.721C139.626 497.834 188.594 506.842 249 506.842Z" fill="#1B1E51"/>
<path d="M182.14 378.873H173.869C168.941 378.873 164.946 374.901 164.946 370.002V346.693C164.946 341.794 168.941 337.822 173.869 337.822H181.672" fill="white"/>
<path d="M182.141 380.422H173.869C168.116 380.422 163.437 375.748 163.437 370.006V346.693C163.437 340.951 168.116 336.277 173.869 336.277H181.672V339.372H173.869C169.779 339.372 166.452 342.658 166.452 346.693V370.006C166.452 374.046 169.779 377.328 173.869 377.328H182.141V380.422Z" fill="#1B1E51"/>
<path d="M315.86 378.873H324.132C329.06 378.873 333.054 374.901 333.054 370.002V346.693C333.054 341.794 329.06 337.822 324.132 337.822H316.329" fill="white"/>
<path d="M324.132 380.422H315.86V377.328H324.132C328.222 377.328 331.549 374.041 331.549 370.006V346.693C331.549 342.654 328.222 339.372 324.132 339.372H316.329V336.277H324.132C329.885 336.277 334.564 340.951 334.564 346.693V370.006C334.564 375.748 329.881 380.422 324.132 380.422Z" fill="black"/>
<path d="M301.271 407.864H196.729C187.889 407.864 180.659 400.445 180.659 391.374V280.814C180.659 271.743 187.889 264.324 196.729 264.324H301.275C310.115 264.324 317.345 271.743 317.345 280.814V391.374C317.345 400.441 310.11 407.864 301.271 407.864Z" fill="white"/>
<path d="M288.13 409.409H209.871C192.93 409.409 179.149 395.269 179.149 377.885V294.299C179.149 276.915 192.93 262.775 209.871 262.775H288.13C305.071 262.775 318.851 276.915 318.851 294.299V377.885C318.851 395.269 305.071 409.409 288.13 409.409ZM209.871 265.869C194.593 265.869 182.165 278.622 182.165 294.299V377.885C182.165 393.562 194.593 406.315 209.871 406.315H288.13C303.407 406.315 315.835 393.562 315.835 377.885V294.299C315.835 278.622 303.407 265.869 288.13 265.869H209.871Z" fill="#1B1E51"/>
<path d="M343.204 329.846L340.002 343.237L333.24 334.741L324.637 330.19L306.518 330.888L302.805 330.114L291.527 322.056L285.794 309.759L293.725 331.897C304.124 368.576 297.351 386.752 297.351 386.752L298.616 395.588L308.111 471.815C308.111 471.815 326.118 481.575 315.013 487.526C296.766 497.307 270.678 489.114 270.678 489.114L252.58 418.225H244.366L225.998 489.535C225.998 489.535 193.925 497.227 184.778 490.799C169.023 479.728 189.188 471.64 189.188 471.64L199.637 387.096C193.929 365.911 201.665 336.043 206.568 320.651L205.83 323.014L200.566 326.538L194.389 330.599C194.389 330.599 187.586 330.033 178.137 329.254C168.696 328.466 157.4 342.36 157.4 342.36C153.157 336.371 157.799 321.809 163.983 312.492C170.172 303.182 203.611 282.053 203.611 282.053C256.238 306.124 293.642 281.534 293.642 281.534L319.697 299.288L323.882 303.957L336.551 316.293L343.204 329.846Z" fill="white"/>
<path d="M202.113 284.339C202.113 284.339 228.927 312.994 271.707 302.902C314.482 292.809 304.979 289.11 304.979 289.11L293.514 282.019L260.345 290.706L230.08 292.733L214.861 287.314L208.667 285.501L202.25 282.568L202.113 284.339Z" fill="#D3D3D3"/>
<path d="M212.421 308.814C205.606 329.101 194.423 361.664 201.947 382.295C202.81 384.623 199.508 386.088 198.471 383.789C191.652 366.716 198.085 342.837 203.793 326.07C205.971 320.004 208.389 314.037 211.297 308.295C211.646 307.631 212.699 308.069 212.421 308.814Z" fill="#1B1E51"/>
<path d="M286.553 308.295C296.052 327.5 307.85 363.085 299.379 383.789C298.964 384.768 297.853 385.215 296.899 384.789C295.957 384.368 295.521 383.248 295.907 382.278C301.885 365.66 296.003 343.59 291.315 327.002C289.519 320.898 287.553 314.82 285.429 308.81C285.172 308.12 286.184 307.58 286.553 308.295Z" fill="#1B1E51"/>
<path d="M194.622 432.761C197.559 434.855 201.251 435.702 204.711 436.656C212.02 438.66 219.569 439.014 227.09 438.516C230.877 438.282 234.702 437.911 238.456 437.366C239.514 437.213 239.866 438.835 238.8 439.129C224.688 442.734 208.83 443.338 195.738 435.953C194.797 435.357 193.884 434.74 193.191 433.804C192.548 432.829 193.934 431.807 194.622 432.761Z" fill="#1B1E51"/>
<path d="M303.93 433.799C303.718 434.131 303.515 434.28 303.287 434.532C300.396 437.047 296.687 438.299 293.149 439.448C281.833 443.015 269.666 441.993 258.321 439.124C257.271 438.831 257.583 437.188 258.69 437.366C267.555 438.567 276.627 439.295 285.52 438.099C289.644 437.409 293.841 436.426 297.807 435.059C299.396 434.485 300.98 433.88 302.345 432.876C302.407 432.829 302.511 432.727 302.499 432.761C303.171 431.812 304.585 432.82 303.93 433.799Z" fill="#1B1E51"/>
<path d="M294.865 385.59C294.865 385.59 265.36 387.194 249.19 387.194C233.021 387.194 203.515 385.59 203.515 385.59C200.582 385.59 197.952 384.027 196.923 381.669L195.766 379.026C194.04 375.08 197.442 370.866 202.357 370.866C202.357 370.866 214.064 372.471 249.186 372.471C284.308 372.471 296.014 370.866 296.014 370.866C300.93 370.866 304.331 375.076 302.606 379.026L301.448 381.669C300.428 384.027 297.802 385.59 294.865 385.59Z" fill="white"/>
<path d="M249.19 388.744C233.436 388.744 204.71 387.207 203.474 387.139C199.935 387.126 196.824 385.232 195.547 382.308L194.389 379.664C193.46 377.54 193.643 375.182 194.895 373.203C196.405 370.811 199.263 369.325 202.358 369.325L202.557 369.338C202.673 369.355 214.636 370.93 249.19 370.93C283.745 370.93 295.704 369.355 295.824 369.338L296.023 369.325C299.118 369.325 301.976 370.811 303.486 373.203C304.734 375.182 304.921 377.54 303.992 379.664L302.834 382.308C301.557 385.232 298.446 387.126 294.907 387.139C293.675 387.203 264.945 388.744 249.19 388.744ZM202.271 372.416C200.226 372.441 198.38 373.382 197.434 374.88C196.741 375.978 196.638 377.225 197.148 378.392L198.305 381.035C199.089 382.831 201.188 384.04 203.519 384.04L203.598 384.044C203.893 384.061 233.253 385.645 249.195 385.645C265.136 385.645 294.492 384.057 294.791 384.044L294.87 384.04C297.205 384.04 299.3 382.831 300.084 381.035L301.241 378.392C301.752 377.225 301.652 375.978 300.955 374.88C300.009 373.382 298.163 372.441 296.118 372.416C294.799 372.586 282.67 374.02 249.195 374.02C215.719 374.02 203.59 372.586 202.271 372.416Z" fill="#1B1E51"/>
<path d="M167.21 333.485C167.21 333.485 156.948 340.964 159.603 346.514C162.258 352.065 172.981 356.304 172.981 356.304C172.981 356.304 168.16 375.761 184.587 378.043C201.014 380.324 210.401 370.428 206.788 351.005C203.175 331.578 187.636 329.318 187.636 329.318C187.636 329.318 176.49 327.321 167.21 333.485Z" fill="white"/>
<path opacity="0.15" d="M194.352 332.676C194.352 332.676 211.849 359.803 196.111 363.438C180.373 367.074 177.287 354.683 177.287 354.683C177.287 354.683 162.486 345.297 166.618 339.24C170.749 333.183 182.858 329.752 182.858 329.752L175.868 328.884C174.3 329.139 164.531 333.425 163.623 334.762L158.255 342.671L167.762 353.321L172.421 359.02L173.147 370.27L184.322 379.613L200.155 376.285L207.73 359.633L205.266 346.152L198.674 334.468L194.352 332.676Z" fill="#1B1E51"/>
<path d="M158.06 342.603C160.789 335.175 167.692 329.905 175.212 328.641C182.613 327.326 190.27 329.118 197.081 332.059C197.936 332.442 197.459 333.783 196.559 333.485C195.016 332.987 192.921 332.327 191.382 331.94C179.029 328.573 165.755 330.454 159.458 343.13C159.109 344.054 157.732 343.556 158.06 342.603Z" fill="#1B1E51"/>
<path d="M222.107 274.485C201.665 284.011 138.29 317.442 161.814 346.165C165.19 350.252 169.633 353.474 174.204 356.253C172.748 361.851 172.786 368.721 176.743 373.241C180.435 377.37 186.603 378.609 191.867 378.204C199.57 377.536 204.54 370.368 205.631 362.911C207.626 350.584 201.96 338.248 192.568 330.603C194.754 328.713 197.052 326.981 199.5 325.491C201.541 324.261 203.689 323.159 206.05 322.537C206.411 322.443 206.784 322.665 206.875 323.039C206.967 323.397 206.763 323.763 206.427 323.874C202.271 325.461 198.629 328.543 195.426 331.655L195.372 329.629C201.752 334.924 206.265 342.517 207.979 350.762C210.82 363.017 206.228 379.567 192.178 381.124C180.439 382.091 170.342 376.059 170.33 363.043C170.318 360.825 170.508 358.782 171.027 356.585L171.699 358.318C159.96 351.15 149.817 339.602 155.252 324.716C164.041 301.544 199.902 282.355 221.211 272.369C222.568 271.82 223.501 273.812 222.107 274.485Z" fill="#1B1E51"/>
<path d="M330.79 333.485C330.79 333.485 341.052 340.964 338.397 346.514C335.743 352.065 325.02 356.304 325.02 356.304C325.02 356.304 329.84 375.761 313.413 378.043C296.987 380.324 287.599 370.428 291.212 351.005C294.825 331.578 310.364 329.318 310.364 329.318C310.364 329.318 321.51 327.321 330.79 333.485Z" fill="white"/>
<path opacity="0.15" d="M303.648 332.676C303.648 332.676 286.151 359.803 301.889 363.438C317.628 367.074 320.714 354.683 320.714 354.683C320.714 354.683 335.514 345.297 331.383 339.24C327.251 333.183 315.143 329.752 315.143 329.752L322.132 328.884C323.7 329.139 333.469 333.425 334.378 334.762L339.745 342.671L330.238 353.321L325.58 359.02L324.854 370.27L313.679 379.613L297.845 376.285L290.271 359.633L292.735 346.152L299.326 334.468L303.648 332.676Z" fill="#1B1E51"/>
<path d="M338.546 343.13C333.552 332.71 322.559 329.079 311.87 330.863C308.427 331.369 304.751 332.387 301.441 333.485C300.558 333.783 300.047 332.446 300.919 332.059C311.015 327.598 323.97 325.857 333.175 333.302C336.161 335.766 338.575 338.865 339.94 342.603C340.255 343.548 338.911 344.067 338.546 343.13Z" fill="#1B1E51"/>
<path d="M276.781 272.369C297.982 282.193 354.081 311.3 342.653 341.066C339.55 348.706 332.901 354.138 326.297 358.318C326.297 358.318 326.973 356.577 326.973 356.585C327.94 360.876 327.985 365.256 326.679 369.483C324.065 378.439 314.184 381.967 305.822 381.12C296.808 380.286 290.864 372.015 289.648 363.37C287.682 350.788 293.045 337.567 302.632 329.624L302.578 331.65C301.806 330.867 300.944 330.08 300.085 329.335C297.521 327.143 294.705 325.027 291.577 323.869C291.212 323.75 291.017 323.342 291.146 322.976C291.262 322.635 291.619 322.448 291.955 322.533C297.077 323.993 301.387 327.19 305.436 330.599C296.049 338.24 290.378 350.584 292.373 362.906C293.464 370.36 298.434 377.54 306.137 378.2C313.098 378.839 321.713 376.119 323.862 368.534C325.094 364.626 324.829 360.178 323.804 356.245C332.192 351.184 341.405 343.611 341.409 332.864C340.816 307.877 295.833 283.883 275.901 274.476C274.59 273.936 275.32 271.769 276.781 272.369Z" fill="#1B1E51"/>
<path d="M280.862 383.785C283.421 383.785 285.495 381.656 285.495 379.03C285.495 376.404 283.421 374.276 280.862 374.276C278.303 374.276 276.229 376.404 276.229 379.03C276.229 381.656 278.303 383.785 280.862 383.785Z" fill="#1B1E51"/>
<path d="M217.138 383.785C219.697 383.785 221.772 381.656 221.772 379.03C221.772 376.404 219.697 374.276 217.138 374.276C214.579 374.276 212.505 376.404 212.505 379.03C212.505 381.656 214.579 383.785 217.138 383.785Z" fill="#1B1E51"/>
<path d="M218.856 380.12L218.067 377.945C218.2 377.894 221.394 376.604 222.469 372.973C223.555 369.304 222.054 364.349 218.126 358.641C213.969 352.601 212.48 347.14 213.708 342.407C215.197 336.656 220.15 334.23 220.361 334.128L221.32 336.23C221.278 336.252 217.088 338.333 215.886 343.032C214.853 347.063 216.23 351.861 219.971 357.3C224.398 363.728 225.957 369.24 224.617 373.692C223.199 378.413 219.03 380.052 218.856 380.12Z" fill="#1B1E51"/>
<path d="M283.384 380.184C282.857 380.116 270.491 378.481 268.019 371.441C266.746 367.818 268.309 363.579 272.669 358.841C278.626 352.367 281.438 346.506 280.804 341.9C280.264 337.993 277.468 336.26 277.348 336.188L278.481 334.179C278.638 334.272 282.314 336.494 283.031 341.513C283.807 346.931 280.874 353.299 274.312 360.433C270.587 364.481 269.185 367.916 270.147 370.649C272.151 376.353 283.546 377.864 283.662 377.877L283.384 380.184Z" fill="#1B1E51"/>
<path opacity="0.15" d="M180.684 485.095C180.684 485.095 213.699 492.94 222.041 478.813C229.641 465.945 236.647 441.598 236.647 441.598L234.776 464.408L228.537 484.376L220.129 491.301L196.808 492.468L186.002 491.204L180.676 486.917V485.095H180.684Z" fill="#1B1E51"/>
<path opacity="0.15" d="M316.515 485.095C316.515 485.095 283.5 492.94 275.158 478.813C267.559 465.945 260.553 441.598 260.553 441.598L262.424 464.408L268.662 484.376L277.071 491.301L300.392 492.468L311.197 491.204L316.524 486.917V485.095H316.515Z" fill="#1B1E51"/>
<path d="M296.031 493.523C287.942 493.523 279.808 493.357 279.688 493.357C279.551 493.353 269.151 492.783 265.953 481.652C262.564 469.853 252.708 420.153 252.289 418.042L255.247 417.424C255.35 417.939 265.493 469.103 268.848 480.775C271.445 489.807 279.7 490.259 279.783 490.263C279.932 490.267 298.176 490.637 307.094 490.263C310.927 490.101 313.81 488.901 315.428 486.785C317.22 484.444 317.12 481.545 316.726 479.524C315.694 474.271 307.011 473.147 306.924 473.134L305.63 472.99L305.58 471.653C304.564 443.33 294.72 386.82 294.621 386.254L297.591 385.705C297.691 386.266 307.285 441.346 308.546 470.265C311.491 470.849 318.494 472.862 319.684 478.906C320.422 482.665 319.755 486.138 317.801 488.692C315.619 491.54 311.96 493.153 307.215 493.349C304.191 493.481 300.117 493.523 296.031 493.523Z" fill="#1B1E51"/>
<path d="M307.24 473.168C301.64 473.075 295.592 473.326 290.523 476.025C290.229 476.191 289.859 476.084 289.693 475.782C289.54 475.501 289.627 475.148 289.876 474.965C291.145 474.054 292.531 473.373 293.941 472.798C298.218 471.151 302.685 470.41 307.236 470.07C308.07 470.019 308.783 470.67 308.833 471.525C308.895 472.445 308.136 473.224 307.24 473.168Z" fill="#1B1E51"/>
<path d="M190.038 470.07C196.04 470.597 202.267 471.513 207.402 474.96C207.676 475.16 207.747 475.548 207.552 475.833C207.369 476.105 207.012 476.178 206.739 476.012C204.25 474.611 201.408 473.973 198.604 473.573C195.787 473.19 192.83 473.062 190.013 473.168C187.927 473.194 187.939 470.014 190.038 470.07Z" fill="#1B1E51"/>
<path d="M235.108 413.308C243.906 417.829 254.5 417.735 263.315 413.287C264.087 412.887 264.73 414.032 263.983 414.504C257.416 418.91 248.971 420.217 241.45 417.854C238.945 417.088 236.564 416.037 234.369 414.483C234.058 414.266 233.984 413.832 234.195 413.513C234.403 413.202 234.801 413.13 235.108 413.308Z" fill="#1B1E51"/>
<path d="M201.16 493.523C197.074 493.523 193.005 493.481 189.985 493.357C185.239 493.157 181.581 491.548 179.403 488.701C177.449 486.151 176.781 482.673 177.52 478.915C178.706 472.87 185.708 470.857 188.657 470.274C189.918 441.355 199.513 386.275 199.613 385.713L202.583 386.262C202.483 386.828 192.64 443.334 191.623 471.662L191.573 472.998L190.279 473.143C190.192 473.151 181.523 474.216 180.477 479.532C180.079 481.554 179.984 484.453 181.776 486.794C183.393 488.909 186.276 490.11 190.109 490.271C199.024 490.646 217.267 490.276 217.45 490.271C217.752 490.254 225.775 489.748 228.351 480.783C231.703 469.112 241.849 417.948 241.953 417.433L244.91 418.05C244.491 420.161 234.635 469.861 231.246 481.66C228.048 492.791 217.649 493.362 217.545 493.366C217.4 493.357 209.253 493.523 201.16 493.523Z" fill="#1B1E51"/>
<path d="M273.097 349.149H225.663C223 349.149 220.843 346.936 220.843 344.203V326.33C220.843 323.597 223 321.384 225.663 321.384H273.097C275.76 321.384 277.917 323.597 277.917 326.33V344.203C277.917 346.931 275.76 349.149 273.097 349.149Z" fill="white"/>
<path d="M269.152 350.307H229.604C224.149 350.307 219.706 345.752 219.706 340.151V330.369C219.706 324.772 224.145 320.213 229.604 320.213H269.152C274.607 320.213 279.049 324.768 279.049 330.369V340.151C279.049 345.752 274.611 350.307 269.152 350.307ZM229.604 322.541C225.393 322.541 221.971 326.057 221.971 330.373V340.155C221.971 344.475 225.397 347.987 229.604 347.987H269.152C273.362 347.987 276.785 344.471 276.785 340.155V330.373C276.785 326.053 273.362 322.541 269.152 322.541H229.604Z" fill="#1B1E51"/>
<path d="M237.443 335.226C237.613 335.541 237.696 335.894 237.65 336.248C237.617 336.588 237.48 336.916 237.252 337.197C236.808 337.784 236.029 338.18 235.079 338.325C234.792 338.372 234.494 338.397 234.187 338.397C233.946 338.397 233.697 338.384 233.432 338.35C232.801 338.291 232.142 338.137 231.453 337.916C231.258 337.856 231.109 337.695 231.063 337.495C231.042 337.388 230.516 335.043 230.868 332.778C230.901 332.544 231.076 332.37 231.291 332.31C231.271 332.289 231.258 332.251 231.246 332.229C231.109 331.936 231.225 331.582 231.499 331.442C232.411 330.974 233.282 330.748 234.096 330.774C234.826 330.786 235.489 331.02 235.946 331.429C236.219 331.676 236.427 331.982 236.518 332.31C236.634 332.663 236.622 333.025 236.506 333.379C236.414 333.672 236.244 333.94 236.012 334.187C236.846 334.443 237.248 334.885 237.443 335.226ZM236.448 335.826C236.207 335.379 235.328 335.039 233.896 335.158C233.643 335.205 233.382 335.23 233.108 335.251H233.075C232.776 335.251 232.536 335.03 232.503 334.736C232.469 334.421 232.673 334.136 232.984 334.089C233.245 334.043 233.498 334.009 233.751 333.996C234.174 333.915 234.539 333.783 234.826 333.634C235.133 333.447 235.352 333.234 235.431 333C235.535 332.685 235.328 332.438 235.191 332.319C234.938 332.085 234.527 331.957 234.058 331.944C233.453 331.931 232.743 332.119 232.013 332.497L231.897 332.532C231.988 332.651 232.021 332.8 232.001 332.966C231.76 334.536 231.988 336.205 232.117 336.894C233.158 337.201 234.104 337.295 234.904 337.163C235.556 337.069 236.095 336.809 236.356 336.469C236.481 336.32 236.597 336.073 236.448 335.826Z" fill="#4851A0"/>
<path d="M243.881 335.452C243.823 335.839 243.665 336.213 243.391 336.52C243.184 336.767 242.819 336.788 242.591 336.567C242.35 336.354 242.329 335.979 242.545 335.745C242.844 335.392 242.753 335.043 242.67 334.856C242.545 334.562 242.234 334.268 241.823 334.268C241.55 334.268 241.297 334.421 241.035 334.715C240.795 334.996 240.566 335.409 240.359 335.937C239.994 336.899 239.845 337.874 239.845 337.886C239.811 338.167 239.592 338.367 239.318 338.389H239.285C239.032 338.389 238.803 338.214 238.737 337.967C238.704 337.848 238.007 335.281 238.828 333.451C238.953 333.144 239.297 333.017 239.583 333.157C239.87 333.285 239.994 333.638 239.87 333.932C239.753 334.166 239.687 334.447 239.629 334.766C239.799 334.451 239.982 334.17 240.177 333.945C240.392 333.685 240.633 333.489 240.886 333.345C241.185 333.179 241.504 333.098 241.823 333.098C242.636 333.098 243.379 333.6 243.719 334.375C243.873 334.711 243.926 335.085 243.881 335.452Z" fill="#4851A0"/>
<path d="M249.464 337.771C249.464 338.099 249.211 338.359 248.892 338.359C248.684 338.359 248.481 338.265 248.319 338.099C248.24 338.005 248.157 337.886 248.078 337.699C247.917 337.886 247.747 338.006 247.61 338.086C247.303 338.274 246.946 338.355 246.593 338.355C246.183 338.355 245.76 338.235 245.382 338.001C244.594 337.52 244.146 336.639 244.171 335.669C244.192 334.928 244.47 334.251 244.959 333.757C245.403 333.31 246.013 333.055 246.606 333.055C247.05 333.068 247.473 333.208 247.805 333.489C247.805 333.43 247.817 333.408 247.817 333.396C247.83 333.081 248.103 332.821 248.41 332.842C248.73 332.855 248.97 333.136 248.95 333.451C248.95 333.464 248.916 334.319 248.929 335.247C248.95 336.584 249.078 337.078 249.136 337.239C249.327 337.337 249.464 337.537 249.464 337.771ZM247.577 335.732C247.564 334.805 247.199 334.243 246.593 334.23H246.581C246.295 334.23 245.988 334.37 245.76 334.604C245.565 334.792 245.337 335.145 245.316 335.707C245.295 336.494 245.76 336.882 245.967 336.997C246.332 337.218 246.734 337.256 247.041 337.065C247.382 336.869 247.577 336.388 247.577 335.732Z" fill="#4851A0"/>
<path d="M250.53 337.865C250.186 337.465 249.958 336.835 249.866 335.988C249.788 335.26 249.808 334.417 249.924 333.562C249.97 333.247 250.256 333.021 250.576 333.068C250.883 333.102 251.103 333.408 251.057 333.723C250.829 335.413 251.057 336.69 251.389 337.09C251.468 337.184 251.526 337.184 251.551 337.184C251.87 337.184 252.123 337.452 252.123 337.771C252.123 338.099 251.87 338.359 251.551 338.359C251.156 338.359 250.804 338.197 250.53 337.865ZM250.016 331.429C250.016 331.076 250.302 330.786 250.655 330.786C251.007 330.786 251.293 331.08 251.293 331.429C251.293 331.791 251.007 332.085 250.655 332.085C250.302 332.085 250.016 331.791 250.016 331.429Z" fill="#4851A0"/>
<path d="M261.312 334.502C261.527 335.09 261.565 335.779 261.403 336.46C261.241 337.163 260.888 337.797 260.395 338.231C260.167 338.452 259.802 338.431 259.594 338.184C259.387 337.95 259.399 337.576 259.64 337.363C260.337 336.716 260.498 335.605 260.245 334.924C260.084 334.49 259.789 334.268 259.341 334.268C258.951 334.268 258.482 334.596 258.051 335.171C258.051 335.171 258.051 335.183 258.039 335.192C258.072 335.426 258.084 335.66 258.084 335.847C258.084 336.409 258.005 336.95 257.856 337.384C257.765 337.631 257.661 337.839 257.549 337.993C257.288 338.333 256.989 338.38 256.84 338.38C256.541 338.38 256.28 338.24 256.13 337.98C256.027 337.805 255.969 337.593 255.969 337.333C255.969 336.699 256.313 335.749 256.815 334.928C256.803 334.856 256.782 334.8 256.757 334.741C256.562 334.26 256.301 334.26 256.184 334.26C255.911 334.26 255.645 334.413 255.396 334.707C255.143 335 254.915 335.409 254.712 335.95C254.359 336.899 254.21 337.861 254.21 337.874C254.177 338.154 253.957 338.355 253.683 338.376H253.65C253.397 338.376 253.169 338.201 253.102 337.954C253.069 337.835 252.372 335.268 253.194 333.438C253.318 333.132 253.662 333.004 253.949 333.144C254.235 333.272 254.359 333.625 254.235 333.919C254.119 334.153 254.052 334.434 253.994 334.753C254.164 334.438 254.347 334.158 254.542 333.932C254.757 333.672 254.998 333.476 255.251 333.332C255.55 333.166 255.869 333.085 256.189 333.085C256.782 333.085 257.288 333.379 257.616 333.906C258.163 333.379 258.748 333.085 259.341 333.085C259.822 333.085 260.245 333.225 260.598 333.494C260.909 333.749 261.162 334.089 261.312 334.502Z" fill="#4851A0"/>
<path d="M267.741 337.069C267.754 337.937 267.675 339.546 267.09 340.436C266.7 341.036 266.082 341.364 265.443 341.364C265.319 341.364 265.19 341.351 265.053 341.33C264.655 341.249 264.286 341.036 263.991 340.73C263.693 340.415 263.477 339.989 263.386 339.521C263.315 339.206 263.523 338.887 263.83 338.827C264.136 338.759 264.435 338.955 264.506 339.274C264.622 339.849 264.987 340.117 265.281 340.176C265.613 340.244 265.92 340.095 266.14 339.776C266.439 339.329 266.609 338.299 266.596 337.078C266.596 336.763 266.576 336.443 266.551 336.141C266.31 336.716 266.049 337.184 265.738 337.537C265.522 337.797 265.281 337.993 265.028 338.133C264.73 338.299 264.41 338.38 264.091 338.38C263.597 338.38 263.178 338.24 262.822 337.971C262.515 337.737 262.262 337.384 262.112 336.975C261.896 336.388 261.859 335.698 262.021 335.017C262.183 334.315 262.535 333.681 263.029 333.247C263.257 333.034 263.622 333.047 263.83 333.293C264.037 333.54 264.024 333.902 263.784 334.128C263.087 334.762 262.925 335.886 263.178 336.554C263.34 337.001 263.635 337.209 264.091 337.209C264.365 337.209 264.626 337.069 264.879 336.763C265.132 336.469 265.36 336.06 265.563 335.52C265.916 334.57 266.065 333.608 266.065 333.596C266.099 333.336 266.306 333.127 266.559 333.102C266.82 333.068 267.061 333.217 267.165 333.464C267.513 334.362 267.729 335.707 267.741 337.069Z" fill="#4851A0"/>
<path d="M268.293 337.763C268.293 337.41 268.579 337.116 268.932 337.116C269.284 337.116 269.571 337.41 269.571 337.763C269.571 338.125 269.284 338.418 268.932 338.418C268.579 338.418 268.293 338.125 268.293 337.763Z" fill="#E97F23"/>
<path d="M225.878 337.282C224.796 337.282 223.912 336.375 223.912 335.264C223.912 334.153 224.792 333.247 225.878 333.247C226.965 333.247 227.845 334.153 227.845 335.264C227.845 336.375 226.965 337.282 225.878 337.282ZM225.878 334.021C225.21 334.021 224.667 334.579 224.667 335.264C224.667 335.95 225.21 336.507 225.878 336.507C226.546 336.507 227.09 335.95 227.09 335.264C227.09 334.579 226.546 334.021 225.878 334.021Z" fill="#1B1E51"/>
<path d="M272.876 337.282C271.794 337.282 270.91 336.375 270.91 335.264C270.91 334.153 271.79 333.247 272.876 333.247C273.963 333.247 274.843 334.153 274.843 335.264C274.843 336.375 273.959 337.282 272.876 337.282ZM272.876 334.021C272.209 334.021 271.665 334.579 271.665 335.264C271.665 335.95 272.209 336.507 272.876 336.507C273.544 336.507 274.088 335.95 274.088 335.264C274.088 334.579 273.544 334.021 272.876 334.021Z" fill="#1B1E51"/>
<path d="M250.883 88.6005H247.112V142.378H250.883V88.6005Z" fill="#1B1E51"/>
<path d="M249 92.9379C252.448 92.9379 255.243 90.0698 255.243 86.5318C255.243 82.9938 252.448 80.1257 249 80.1257C245.552 80.1257 242.757 82.9938 242.757 86.5318C242.757 90.0698 245.552 92.9379 249 92.9379Z" fill="#1B1E51"/>
<path d="M315.756 184.48L339.438 189.17L342.782 198.254C342.782 198.254 344.221 229.829 337.476 235.158C330.731 240.487 311.845 238.674 311.845 238.674L315.756 184.48Z" fill="white"/>
<path d="M182.231 184.48L158.549 189.17L155.206 198.254C155.206 198.254 153.767 229.829 160.511 235.158C167.256 240.487 186.143 238.674 186.143 238.674L182.231 184.48Z" fill="white"/>
<path d="M188.893 244.076L186.687 243.786C182.858 243.288 163.581 240.628 160.333 237.299C156.691 233.571 154.854 225.994 153.949 220.099L153.871 219.592C152.224 208.453 152.556 195.398 154.584 191.648C156.243 188.583 168.086 183.782 171.679 182.385L173.255 181.772L188.893 244.076ZM156.791 218.732L156.853 219.132C157.998 226.905 159.993 232.579 162.461 235.107C164.029 236.712 174.69 238.981 184.857 240.415L171.168 185.901C164.722 188.511 157.936 191.856 157.214 193.146C155.916 195.555 155.103 206.933 156.791 218.732Z" fill="#1B1E51"/>
<path d="M309.106 244.076L324.749 181.772L326.325 182.385C329.918 183.782 341.761 188.583 343.42 191.648C345.448 195.393 345.78 208.453 344.133 219.592L344.046 220.137C343.138 226.028 341.3 233.579 337.666 237.299C334.418 240.628 315.142 243.288 311.313 243.786L309.106 244.076ZM326.827 185.901L313.138 240.415C323.306 238.976 333.966 236.712 335.534 235.107C338.007 232.579 339.998 226.905 341.147 219.128L341.23 218.588C342.893 206.835 342.08 195.542 340.782 193.146C340.056 191.856 333.274 188.511 326.827 185.901Z" fill="#1B1E51"/>
<path d="M249 294.899C294.823 294.899 331.971 256.781 331.971 209.759C331.971 162.738 294.823 124.62 249 124.62C203.176 124.62 166.028 162.738 166.028 209.759C166.028 256.781 203.176 294.899 249 294.899Z" fill="white"/>
<path d="M249 296.832C202.209 296.832 164.146 257.769 164.146 209.759C164.146 161.75 202.209 122.683 249 122.683C295.791 122.683 333.855 161.745 333.855 209.755C333.855 257.765 295.791 296.832 249 296.832ZM249 126.552C204.291 126.552 167.916 163.878 167.916 209.755C167.916 255.632 204.291 292.958 249 292.958C293.709 292.958 330.084 255.632 330.084 209.755C330.084 163.878 293.709 126.552 249 126.552Z" fill="#1B1E51"/>
<path d="M329.234 188C294.522 133.592 230.25 119.248 184.206 168.22C178.465 174.268 173.189 180.866 168.767 188.004C172.388 180.304 177.204 173.23 182.567 166.687C205.507 138.624 239.517 126.782 273.984 137.862C298.052 145.949 317.81 165.108 329.234 188Z" fill="#1B1E51"/>
<path d="M279.543 249.822L260.328 241.513C253.081 238.381 244.91 238.381 237.667 241.513L218.453 249.822C196.936 259.127 173.931 240.93 173.931 214.603V209.491C173.931 191.443 185.118 175.937 200.599 172.523L200.761 172.489C232.556 165.474 265.443 165.474 297.239 172.489L297.4 172.523C312.881 175.937 324.069 191.448 324.069 209.491V214.603C324.069 240.93 301.063 259.131 279.543 249.822Z" fill="#1B1E51"/>
<path d="M187.063 221.716C184.745 221.716 182.77 219.894 182.563 217.481C182.496 216.689 182.459 215.855 182.459 214.999V211.407C182.459 194.24 191.398 183.271 206.983 181.309C209.459 180.998 211.72 182.807 212.023 185.352C212.326 187.898 210.563 190.213 208.082 190.524C196.928 191.929 191.506 198.756 191.506 211.402V214.995C191.506 215.578 191.531 216.136 191.572 216.659C191.792 219.213 189.951 221.465 187.462 221.691C187.329 221.708 187.196 221.716 187.063 221.716Z" fill="#EFF5FE"/>
<path d="M329.234 232.477C317.465 256.36 296.617 276.656 271.102 283.845C263.934 285.871 256.388 286.693 249 286.637C236.274 286.846 223.394 283.947 212.032 277.979C196.933 270.215 184.414 257.803 175.018 243.565C172.691 240.011 170.555 236.325 168.763 232.477C173.197 239.619 178.482 246.225 184.231 252.278C201.172 270.364 224.153 282.794 248.996 281.998C282.588 283.07 311.608 260.344 329.234 232.477Z" fill="#1B1E51"/>
<path d="M187.595 265.37C185.248 268.321 181.596 272.969 177.749 277.783C175.535 280.553 182.626 293.898 186.145 293.464L219.636 289.338C222.664 288.965 223.267 284.835 220.472 283.612L206.907 277.678C206.638 277.56 206.387 277.403 206.163 277.212L191.825 264.983C190.548 263.894 188.64 264.056 187.595 265.37Z" fill="#1F4DE5"/>
<path d="M310.906 263.829C313.253 266.779 316.905 271.427 320.752 276.241C322.966 279.011 315.875 292.356 312.356 291.922L278.865 287.797C275.837 287.424 275.234 283.294 278.029 282.071L291.594 276.136C291.863 276.018 292.114 275.861 292.338 275.67L306.676 263.442C307.953 262.352 309.861 262.515 310.906 263.829Z" fill="#1F4DE5"/>
<defs>
<linearGradient id="paint0_linear_1169_34783" x1="68.9996" y1="208" x2="68.9996" y2="380.623" gradientUnits="userSpaceOnUse">
<stop stop-color="#979797"/>
<stop offset="1" stop-color="#DCDCDC" stop-opacity="0"/>
</linearGradient>
<linearGradient id="paint1_linear_1169_34783" x1="387" y1="257" x2="387" y2="429.623" gradientUnits="userSpaceOnUse">
<stop stop-color="#979797"/>
<stop offset="1" stop-color="#DCDCDC" stop-opacity="0"/>
</linearGradient>
<linearGradient id="paint2_linear_1169_34783" x1="339" y1="97" x2="339" y2="269.623" gradientUnits="userSpaceOnUse">
<stop stop-color="#979797"/>
<stop offset="1" stop-color="#DCDCDC" stop-opacity="0"/>
</linearGradient>
<linearGradient id="paint3_linear_1169_34783" x1="242" y1="34" x2="242" y2="206.623" gradientUnits="userSpaceOnUse">
<stop stop-color="#979797"/>
<stop offset="1" stop-color="#DCDCDC" stop-opacity="0"/>
</linearGradient>
<linearGradient id="paint4_linear_1169_34783" x1="162" y1="72" x2="162" y2="244.623" gradientUnits="userSpaceOnUse">
<stop stop-color="#979797"/>
<stop offset="1" stop-color="#DCDCDC" stop-opacity="0"/>
</linearGradient>
</defs>
</svg>
